<svg width="25" height="22" viewBox="0 0 25 22" fill="none" xmlns="http://www.w3.org/2000/svg">
<path d="M8 11C9.06087 11 10.0783 10.5259 10.8284 9.68198C11.5786 8.83807 12 7.69347 12 6.5C12 5.30653 11.5786 4.16193 10.8284 3.31802C10.0783 2.47411 9.06087 2 8 2H2V20H8C9.06087 20 10.0783 19.5259 10.8284 18.682C11.5786 17.8381 12 16.6935 12 15.5C12 14.3065 11.5786 13.1619 10.8284 12.318C10.0783 11.4741 9.06087 11 8 11ZM8 11H2" stroke="#888888" stroke-width="2.66667" stroke-linecap="round" stroke-linejoin="round"/>
<path d="M18 15.3333H20.6667C21.3739 15.3333 22.0522 15.0524 22.5523 14.5523C23.0524 14.0522 23.3333 13.3739 23.3333 12.6667C23.3333 11.9594 23.0524 11.2811 22.5523 10.781C22.0522 10.281 21.3739 10 20.6667 10H18V20.6667" stroke="#888888" stroke-width="2.66667" stroke-linecap="round" stroke-linejoin="round"/>
</svg>
