<svg width="25" height="22" viewBox="0 0 25 22" fill="none" xmlns="http://www.w3.org/2000/svg">
<path d="M8 11C9.06087 11 10.0783 10.5259 10.8284 9.68198C11.5786 8.83807 12 7.69347 12 6.5C12 5.30653 11.5786 4.16193 10.8284 3.31802C10.0783 2.47411 9.06087 2 8 2H2V20H8C9.06087 20 10.0783 19.5259 10.8284 18.682C11.5786 17.8381 12 16.6935 12 15.5C12 14.3065 11.5786 13.1619 10.8284 12.318C10.0783 11.4741 9.06087 11 8 11ZM8 11H2" stroke="#888888" stroke-width="2.66667" stroke-linecap="round" stroke-linejoin="round"/>
<path d="M18 10H23.3333M20.6667 10V20.6667" stroke="#888888" stroke-width="2.66667" stroke-linecap="round" stroke-linejoin="round"/>
</svg>
