<svg width="25" height="24" viewBox="0 0 25 24" fill="none" xmlns="http://www.w3.org/2000/svg">
<path d="M18 11H23.3333M20.6667 11V21.6667" stroke="#888888" stroke-width="2.66667" stroke-linecap="round" stroke-linejoin="round"/>
<path d="M12 8.25C12 6.5924 11.561 5.00269 10.7796 3.83058C9.99821 2.65848 8.9384 2 7.83333 2H6.16667C5.0616 2 4.00179 2.65848 3.22039 3.83058C2.43899 5.00269 2 6.5924 2 8.25V15.75C2 17.4076 2.43899 18.9973 3.22039 20.1694C4.00179 21.3415 5.0616 22 6.16667 22H7.83333C8.9384 22 9.99821 21.3415 10.7796 20.1694C11.561 18.9973 12 17.4076 12 15.75V8.25Z" stroke="#888888" stroke-width="2.66667" stroke-linecap="round" stroke-linejoin="round"/>
</svg>
